+ filenameToUse=/home/horvathandras/vatic/vatic/public/videouploads/DJI_0055_friss_turas_regi_turas.avi
+ filenameNoDot=DJI_0055_friss_turas_regi_turas_Homokmegy_2018.03.31._diffuz_kalaszos_T1
+ FullUploadPath=/home/horvathandras/vatic/vatic/public/videouploads/DJI_0055_friss_turas_regi_turas.avi
+ VideoDataDir=/home/horvathandras/vatic/vatic/videos
+ AvailableObjectTypes='PozitívROI NegatívROI Túrás ~Friss ~Régebbi Rágás ~Friss ~Régebbi Törés ~Friss ~Régebbi Taposás ~Friss ~Régebbi EgészségesNövény Egyéb1 Egyéb2 Egyéb3 Egyéb4 Egyéb5'
++ dirname /home/horvathandras/vatic/vatic/vatic_publisher.sh
+ cd /home/horvathandras/vatic/vatic
+ touch /home/horvathandras/vatic/vatic/public/videouploads/DJI_0055_friss_turas_regi_turas.avi
+ chmod 744 /home/horvathandras/vatic/vatic/public/videouploads/DJI_0055_friss_turas_regi_turas.avi
+ mkdir /home/horvathandras/vatic/vatic/videos/DJI_0055_friss_turas_regi_turas_Homokmegy_2018.03.31._diffuz_kalaszos_T1
+ turkic extract /home/horvathandras/vatic/vatic/public/videouploads/DJI_0055_friss_turas_regi_turas.avi /home/horvathandras/vatic/vatic/videos/DJI_0055_friss_turas_regi_turas_Homokmegy_2018.03.31._diffuz_kalaszos_T1 --no-resize
ffmpeg version 2.8.14-0ubuntu0.16.04.1 Copyright (c) 2000-2018 the FFmpeg developers
  built with gcc 5.4.0 (Ubuntu 5.4.0-6ubuntu1~16.04.9) 20160609
  configuration: --prefix=/usr --extra-version=0ubuntu0.16.04.1 --build-suffix=-ffmpeg --toolchain=hardened --libdir=/usr/lib/x86_64-linux-gnu --incdir=/usr/include/x86_64-linux-gnu --cc=cc --cxx=g++ --enable-gpl --enable-shared --disable-stripping --disable-decoder=libopenjpeg --disable-decoder=libschroedinger --enable-avresample --enable-avisynth --enable-gnutls --enable-ladspa --enable-libass --enable-libbluray --enable-libbs2b --enable-libcaca --enable-libcdio --enable-libflite --enable-libfontconfig --enable-libfreetype --enable-libfribidi --enable-libgme --enable-libgsm --enable-libmodplug --enable-libmp3lame --enable-libopenjpeg --enable-libopus --enable-libpulse --enable-librtmp --enable-libschroedinger --enable-libshine --enable-libsnappy --enable-libsoxr --enable-libspeex --enable-libssh --enable-libtheora --enable-libtwolame --enable-libvorbis --enable-libvpx --enable-libwavpack --enable-libwebp --enable-libx265 --enable-libxvid --enable-libzvbi --enable-openal --enable-opengl --enable-x11grab --enable-libdc1394 --enable-libiec61883 --enable-libzmq --enable-frei0r --enable-libx264 --enable-libopencv
  libavutil      54. 31.100 / 54. 31.100
  libavcodec     56. 60.100 / 56. 60.100
  libavformat    56. 40.101 / 56. 40.101
  libavdevice    56.  4.100 / 56.  4.100
  libavfilter     5. 40.101 /  5. 40.101
  libavresample   2.  1.  0 /  2.  1.  0
  libswscale      3.  1.101 /  3.  1.101
  libswresample   1.  2.101 /  1.  2.101
  libpostproc    53.  3.100 / 53.  3.100
Input #0, mov,mp4,m4a,3gp,3g2,mj2, from '/home/horvathandras/vatic/vatic/public/videouploads/DJI_0055_friss_turas_regi_turas.avi':
  Metadata:
    major_brand     : qt  
    minor_version   : 537986816
    compatible_brands: qt  
    creation_time   : 2018-03-31 11:00:06
    location        : +46.517537+19.173127+30.400
    location-{    : +46.517537+19.173127+30.400
    comment         : DE=None, Mode=P, DSW=0001
  Duration: 00:01:51.11, start: 0.000000, bitrate: 100046 kb/s
    Stream #0:0(eng): Video: h264 (High) (avc1 / 0x31637661), yuv420p(tv, bt709), 3840x2160 [SAR 1:1 DAR 16:9], 100015 kb/s, 29.97 fps, 29.97 tbr, 30k tbn, 59.94 tbc (default)
    Metadata:
      creation_time   : 2018-03-31 11:00:06
      handler_name    : DJI.AVC
      encoder         : AVC encoder
    Stream #0:1(eng): Data: none (priv / 0x76697270), 29 kb/s
    Metadata:
      creation_time   : 2018-03-31 11:00:06
      handler_name    : DJI.Meta
Please use -b:a or -b:v, -b is ambiguous
[swscaler @ 0x1d68060] deprecated pixel format used, make sure you did set range correctly
Output #0, image2, to '/tmp/pyvision-ffmpeg-791338537/%d.jpg':
  Metadata:
    major_brand     : qt  
    minor_version   : 537986816
    compatible_brands: qt  
    comment         : DE=None, Mode=P, DSW=0001
    location        : +46.517537+19.173127+30.400
    location-{    : +46.517537+19.173127+30.400
    encoder         : Lavf56.40.101
    Stream #0:0(eng): Video: mjpeg, yuvj420p(pc), 3840x2160 [SAR 1:1 DAR 16:9], q=2-31, 10000 kb/s, 29.97 fps, 29.97 tbn, 29.97 tbc (default)
    Metadata:
      creation_time   : 2018-03-31 11:00:06
      handler_name    : DJI.AVC
      encoder         : Lavc56.60.100 mjpeg
Stream mapping:
  Stream #0:0 -> #0:0 (h264 (native) -> mjpeg (native))
Press [q] to stop, [?] for help
frame=    1 fps=0.0 q=13.1 size=N/A time=00:00:00.03 bitrate=N/A    frame=    5 fps=4.2 q=22.6 size=N/A time=00:00:00.16 bitrate=N/A    frame=   10 fps=5.9 q=24.8 size=N/A time=00:00:00.33 bitrate=N/A    frame=   15 fps=6.8 q=24.8 size=N/A time=00:00:00.50 bitrate=N/A    frame=   20 fps=7.4 q=24.8 size=N/A time=00:00:00.66 bitrate=N/A    frame=   26 fps=7.9 q=24.8 size=N/A time=00:00:00.86 bitrate=N/A    frame=   31 fps=7.6 q=24.8 size=N/A time=00:00:01.03 bitrate=N/A    frame=   37 fps=7.9 q=24.8 size=N/A time=00:00:01.23 bitrate=N/A    frame=   42 fps=8.1 q=24.8 size=N/A time=00:00:01.40 bitrate=N/A    frame=   47 fps=8.3 q=24.8 size=N/A time=00:00:01.56 bitrate=N/A    frame=   53 fps=8.5 q=24.8 size=N/A time=00:00:01.76 bitrate=N/A    frame=   59 fps=8.6 q=24.8 size=N/A time=00:00:01.96 bitrate=N/A    frame=   63 fps=8.5 q=24.8 size=N/A time=00:00:02.10 bitrate=N/A    frame=   68 fps=8.6 q=24.8 size=N/A time=00:00:02.26 bitrate=N/A    frame=   73 fps=8.6 q=24.8 size=N/A time=00:00:02.43 bitrate=N/A    frame=   78 fps=8.7 q=24.8 size=N/A time=00:00:02.60 bitrate=N/A    frame=   83 fps=8.8 q=24.8 size=N/A time=00:00:02.76 bitrate=N/A    frame=   88 fps=8.8 q=24.8 size=N/A time=00:00:02.93 bitrate=N/A    frame=   91 fps=8.7 q=24.8 size=N/A time=00:00:03.03 bitrate=N/A    frame=   96 fps=8.7 q=24.8 size=N/A time=00:00:03.20 bitrate=N/A    frame=  102 fps=8.8 q=24.8 size=N/A time=00:00:03.40 bitrate=N/A    frame=  108 fps=8.9 q=24.8 size=N/A time=00:00:03.60 bitrate=N/A    frame=  114 fps=8.9 q=24.8 size=N/A time=00:00:03.80 bitrate=N/A    frame=  119 fps=8.9 q=24.8 size=N/A time=00:00:03.97 bitrate=N/A    frame=  124 fps=8.9 q=24.8 size=N/A time=00:00:04.13 bitrate=N/A    frame=  130 fps=9.0 q=24.8 size=N/A time=00:00:04.33 bitrate=N/A    frame=  135 fps=9.0 q=24.8 size=N/A time=00:00:04.50 bitrate=N/A    frame=  140 fps=9.0 q=24.8 size=N/A time=00:00:04.67 bitrate=N/A    frame=  145 fps=9.0 q=24.8 size=N/A time=00:00:04.83 bitrate=N/A    frame=  150 fps=9.0 q=24.8 size=N/A time=00:00:05.00 bitrate=N/A    frame=  155 fps=9.0 q=24.8 size=N/A time=00:00:05.17 bitrate=N/A    frame=  161 fps=9.0 q=24.8 size=N/A time=00:00:05.37 bitrate=N/A    frame=  167 fps=9.1 q=24.8 size=N/A time=00:00:05.57 bitrate=N/A    frame=  173 fps=9.1 q=24.8 size=N/A time=00:00:05.77 bitrate=N/A    frame=  179 fps=9.2 q=24.8 size=N/A time=00:00:05.97 bitrate=N/A    frame=  183 fps=9.1 q=24.8 size=N/A time=00:00:06.10 bitrate=N/A    frame=  188 fps=9.1 q=24.8 size=N/A time=00:00:06.27 bitrate=N/A    frame=  194 fps=9.2 q=24.8 size=N/A time=00:00:06.47 bitrate=N/A    frame=  200 fps=9.2 q=24.8 size=N/A time=00:00:06.67 bitrate=N/A    frame=  206 fps=9.2 q=24.8 size=N/A time=00:00:06.87 bitrate=N/A    frame=  211 fps=9.2 q=24.8 size=N/A time=00:00:07.04 bitrate=N/A    frame=  216 fps=9.2 q=24.8 size=N/A time=00:00:07.20 bitrate=N/A    frame=  222 fps=9.2 q=24.8 size=N/A time=00:00:07.40 bitrate=N/A    frame=  228 fps=9.2 q=24.8 size=N/A time=00:00:07.60 bitrate=N/A    frame=  234 fps=9.3 q=24.8 size=N/A time=00:00:07.80 bitrate=N/A    frame=  239 fps=9.3 q=24.8 size=N/A time=00:00:07.97 bitrate=N/A    frame=  244 fps=9.3 q=24.8 size=N/A time=00:00:08.14 bitrate=N/A    frame=  250 fps=9.3 q=24.8 size=N/A time=00:00:08.34 bitrate=N/A    frame=  256 fps=9.3 q=24.8 size=N/A time=00:00:08.54 bitrate=N/A    frame=  262 fps=9.3 q=24.8 size=N/A time=00:00:08.74 bitrate=N/A    frame=  268 fps=9.3 q=24.8 size=N/A time=00:00:08.94 bitrate=N/A    frame=  273 fps=9.3 q=24.8 size=N/A time=00:00:09.10 bitrate=N/A    frame=  278 fps=9.3 q=24.8 size=N/A time=00:00:09.27 bitrate=N/A    frame=  283 fps=9.3 q=24.8 size=N/A time=00:00:09.44 bitrate=N/A    frame=  288 fps=9.3 q=24.8 size=N/A time=00:00:09.60 bitrate=N/A    frame=  294 fps=9.4 q=24.8 size=N/A time=00:00:09.80 bitrate=N/A    frame=  300 fps=9.4 q=24.8 size=N/A time=00:00:10.01 bitrate=N/A    frame=  303 fps=9.3 q=24.8 size=N/A time=00:00:10.11 bitrate=N/A    frame=  309 fps=9.3 q=24.8 size=N/A time=00:00:10.31 bitrate=N/A    frame=  314 fps=9.3 q=24.8 size=N/A time=00:00:10.47 bitrate=N/A    frame=  319 fps=9.3 q=24.8 size=N/A time=00:00:10.64 bitrate=N/A    frame=  324 fps=9.4 q=24.8 size=N/A time=00:00:10.81 bitrate=N/A    frame=  329 fps=9.3 q=24.8 size=N/A time=00:00:10.97 bitrate=N/A    frame=  334 fps=9.3 q=24.8 size=N/A time=00:00:11.14 bitrate=N/A    frame=  339 fps=9.3 q=24.8 size=N/A time=00:00:11.31 bitrate=N/A    frame=  345 fps=9.4 q=24.8 size=N/A time=00:00:11.51 bitrate=N/A    frame=  350 fps=9.4 q=24.8 size=N/A time=00:00:11.67 bitrate=N/A    frame=  355 fps=9.4 q=24.8 size=N/A time=00:00:11.84 bitrate=N/A    frame=  359 fps=9.3 q=24.8 size=N/A time=00:00:11.97 bitrate=N/A    frame=  364 fps=9.3 q=24.8 size=N/A time=00:00:12.14 bitrate=N/A    frame=  369 fps=9.3 q=24.8 size=N/A time=00:00:12.31 bitrate=N/A    frame=  374 fps=9.4 q=24.8 size=N/A time=00:00:12.47 bitrate=N/A    frame=  379 fps=9.4 q=24.8 size=N/A time=00:00:12.64 bitrate=N/A    frame=  384 fps=9.4 q=24.8 size=N/A time=00:00:12.81 bitrate=N/A    frame=  389 fps=9.4 q=24.8 size=N/A time=00:00:12.97 bitrate=N/A    frame=  393 fps=9.3 q=24.8 size=N/A time=00:00:13.11 bitrate=N/A    frame=  399 fps=9.3 q=24.8 size=N/A time=00:00:13.31 bitrate=N/A    frame=  404 fps=9.4 q=24.8 size=N/A time=00:00:13.48 bitrate=N/A    frame=  409 fps=9.4 q=24.8 size=N/A time=00:00:13.64 bitrate=N/A    frame=  414 fps=9.4 q=24.8 size=N/A time=00:00:13.81 bitrate=N/A    frame=  420 fps=9.4 q=24.8 size=N/A time=00:00:14.01 bitrate=N/A    frame=  424 fps=9.3 q=24.8 size=N/A time=00:00:14.14 bitrate=N/A    frame=  429 fps=9.3 q=24.8 size=N/A time=00:00:14.31 bitrate=N/A    frame=  434 fps=9.4 q=24.8 size=N/A time=00:00:14.48 bitrate=N/A    frame=  439 fps=9.4 q=24.8 size=N/A time=00:00:14.64 bitrate=N/A    frame=  444 fps=9.4 q=24.8 size=N/A time=00:00:14.81 bitrate=N/A    frame=  449 fps=9.4 q=24.8 size=N/A time=00:00:14.98 bitrate=N/A    frame=  454 fps=9.3 q=24.8 size=N/A time=00:00:15.14 bitrate=N/A    frame=  460 fps=9.4 q=24.8 size=N/A time=00:00:15.34 bitrate=N/A    frame=  466 fps=9.4 q=24.8 size=N/A time=00:00:15.54 bitrate=N/A    frame=  471 fps=9.4 q=24.8 size=N/A time=00:00:15.71 bitrate=N/A    frame=  476 fps=9.4 q=24.8 size=N/A time=00:00:15.88 bitrate=N/A    frame=  481 fps=9.3 q=24.8 size=N/A time=00:00:16.04 bitrate=N/A    frame=  486 fps=9.4 q=24.8 size=N/A time=00:00:16.21 bitrate=N/A    frame=  491 fps=9.4 q=24.8 size=N/A time=00:00:16.38 bitrate=N/A    frame=  496 fps=9.4 q=24.8 size=N/A time=00:00:16.54 bitrate=N/A    frame=  501 fps=9.4 q=24.8 size=N/A time=00:00:16.71 bitrate=N/A    frame=  506 fps=9.4 q=24.8 size=N/A time=00:00:16.88 bitrate=N/A    frame=  511 fps=9.3 q=24.8 size=N/A time=00:00:17.05 bitrate=N/A    frame=  516 fps=9.3 q=24.8 size=N/A time=00:00:17.21 bitrate=N/A    frame=  521 fps=9.4 q=24.8 size=N/A time=00:00:17.38 bitrate=N/A    frame=  527 fps=9.4 q=24.8 size=N/A time=00:00:17.58 bitrate=N/A    frame=  532 fps=9.4 q=24.8 size=N/A time=00:00:17.75 bitrate=N/A    frame=  537 fps=9.4 q=24.8 size=N/A time=00:00:17.91 bitrate=N/A    frame=  541 fps=9.3 q=24.8 size=N/A time=00:00:18.05 bitrate=N/A    frame=  547 fps=9.4 q=24.8 size=N/A time=00:00:18.25 bitrate=N/A    frame=  552 fps=9.4 q=24.8 size=N/A time=00:00:18.41 bitrate=N/A    frame=  558 fps=9.4 q=24.8 size=N/A time=00:00:18.61 bitrate=N/A    frame=  563 fps=9.4 q=24.8 size=N/A time=00:00:18.78 bitrate=N/A    frame=  569 fps=9.4 q=24.8 size=N/A time=00:00:18.98 bitrate=N/A    frame=  573 fps=9.4 q=24.8 size=N/A time=00:00:19.11 bitrate=N/A    frame=  578 fps=9.4 q=24.8 size=N/A time=00:00:19.28 bitrate=N/A    frame=  583 fps=9.4 q=24.8 size=N/A time=00:00:19.45 bitrate=N/A    frame=  588 fps=9.4 q=24.8 size=N/A time=00:00:19.61 bitrate=N/A    frame=  593 fps=9.4 q=24.8 size=N/A time=00:00:19.78 bitrate=N/A    frame=  598 fps=9.4 q=24.8 size=N/A time=00:00:19.95 bitrate=N/A    frame=  603 fps=9.4 q=24.8 size=N/A time=00:00:20.12 bitrate=N/A    frame=  608 fps=9.4 q=24.8 size=N/A time=00:00:20.28 bitrate=N/A    frame=  613 fps=9.4 q=24.8 size=N/A time=00:00:20.45 bitrate=N/A    frame=  618 fps=9.4 q=24.8 size=N/A time=00:00:20.62 bitrate=N/A    frame=  623 fps=9.4 q=24.8 size=N/A time=00:00:20.78 bitrate=N/A    frame=  628 fps=9.4 q=24.8 size=N/A time=00:00:20.95 bitrate=N/A    frame=  633 fps=9.4 q=24.8 size=N/A time=00:00:21.12 bitrate=N/A    frame=  638 fps=9.4 q=24.8 size=N/A time=00:00:21.28 bitrate=N/A    frame=  643 fps=9.4 q=24.8 size=N/A time=00:00:21.45 bitrate=N/A    frame=  648 fps=9.4 q=24.8 size=N/A time=00:00:21.62 bitrate=N/A    frame=  653 fps=9.4 q=24.8 size=N/A time=00:00:21.78 bitrate=N/A    frame=  658 fps=9.4 q=24.8 size=N/A time=00:00:21.95 bitrate=N/A    frame=  662 fps=9.4 q=24.8 size=N/A time=00:00:22.08 bitrate=N/A    frame=  667 fps=9.4 q=24.8 size=N/A time=00:00:22.25 bitrate=N/A    frame=  672 fps=9.4 q=24.8 size=N/A time=00:00:22.42 bitrate=N/A    frame=  677 fps=9.4 q=24.8 size=N/A time=00:00:22.58 bitrate=N/A    frame=  682 fps=9.4 q=24.8 size=N/A time=00:00:22.75 bitrate=N/A    frame=  687 fps=9.4 q=24.8 size=N/A time=00:00:22.92 bitrate=N/A    frame=  691 fps=9.4 q=24.8 size=N/A time=00:00:23.05 bitrate=N/A    frame=  696 fps=9.4 q=24.8 size=N/A time=00:00:23.22 bitrate=N/A    frame=  701 fps=9.4 q=24.8 size=N/A time=00:00:23.39 bitrate=N/A    frame=  706 fps=9.4 q=24.8 size=N/A time=00:00:23.55 bitrate=N/A    frame=  711 fps=9.4 q=24.8 size=N/A time=00:00:23.72 bitrate=N/A    frame=  716 fps=9.4 q=24.8 size=N/A time=00:00:23.89 bitrate=N/A    frame=  721 fps=9.4 q=24.8 size=N/A time=00:00:24.05 bitrate=N/A    frame=  726 fps=9.4 q=24.8 size=N/A time=00:00:24.22 bitrate=N/A    frame=  731 fps=9.4 q=24.8 size=N/A time=00:00:24.39 bitrate=N/A    frame=  736 fps=9.4 q=24.8 size=N/A time=00:00:24.55 bitrate=N/A    frame=  741 fps=9.4 q=24.8 size=N/A time=00:00:24.72 bitrate=N/A    frame=  746 fps=9.4 q=24.8 size=N/A time=00:00:24.89 bitrate=N/A    frame=  751 fps=9.4 q=24.8 size=N/A time=00:00:25.05 bitrate=N/A    frame=  756 fps=9.4 q=24.8 size=N/A time=00:00:25.22 bitrate=N/A    frame=  761 fps=9.4 q=24.8 size=N/A time=00:00:25.39 bitrate=N/A    frame=  766 fps=9.4 q=24.8 size=N/A time=00:00:25.55 bitrate=N/A    frame=  771 fps=9.4 q=24.8 size=N/A time=00:00:25.72 bitrate=N/A    frame=  777 fps=9.4 q=24.8 size=N/A time=00:00:25.92 bitrate=N/A    frame=  781 fps=9.4 q=24.8 size=N/A time=00:00:26.05 bitrate=N/A    frame=  787 fps=9.4 q=24.8 size=N/A time=00:00:26.25 bitrate=N/A    frame=  793 fps=9.4 q=24.8 size=N/A time=00:00:26.45 bitrate=N/A    frame=  799 fps=9.4 q=24.8 size=N/A time=00:00:26.65 bitrate=N/A    frame=  804 fps=9.4 q=24.8 size=N/A time=00:00:26.82 bitrate=N/A    frame=  809 fps=9.4 q=24.8 size=N/A time=00:00:26.99 bitrate=N/A    frame=  813 fps=9.4 q=24.8 size=N/A time=00:00:27.12 bitrate=N/A    frame=  818 fps=9.4 q=24.8 size=N/A time=00:00:27.29 bitrate=N/A    frame=  823 fps=9.4 q=24.8 size=N/A time=00:00:27.46 bitrate=N/A    frame=  828 fps=9.4 q=24.8 size=N/A time=00:00:27.62 bitrate=N/A    frame=  833 fps=9.4 q=24.8 size=N/A time=00:00:27.79 bitrate=N/A    frame=  838 fps=9.4 q=24.8 size=N/A time=00:00:27.96 bitrate=N/A    frame=  842 fps=9.4 q=24.8 size=N/A time=00:00:28.09 bitrate=N/A    frame=  847 fps=9.4 q=24.8 size=N/A time=00:00:28.26 bitrate=N/A    frame=  852 fps=9.4 q=24.8 size=N/A time=00:00:28.42 bitrate=N/A    frame=  858 fps=9.4 q=24.8 size=N/A time=00:00:28.62 bitrate=N/A    frame=  863 fps=9.4 q=24.8 size=N/A time=00:00:28.79 bitrate=N/A    frame=  868 fps=9.4 q=24.8 size=N/A time=00:00:28.96 bitrate=N/A    frame=  872 fps=9.4 q=24.8 size=N/A time=00:00:29.09 bitrate=N/A    frame=  877 fps=9.4 q=24.8 size=N/A time=00:00:29.26 bitrate=N/A    frame=  882 fps=9.4 q=24.8 size=N/A time=00:00:29.42 bitrate=N/A    frame=  887 fps=9.4 q=24.8 size=N/A time=00:00:29.59 bitrate=N/A    frame=  892 fps=9.4 q=24.8 size=N/A time=00:00:29.76 bitrate=N/A    frame=  897 fps=9.4 q=24.8 size=N/A time=00:00:29.92 bitrate=N/A    frame=  901 fps=9.4 q=24.8 size=N/A time=00:00:30.06 bitrate=N/A    frame=  906 fps=9.4 q=24.8 size=N/A time=00:00:30.23 bitrate=N/A    frame=  911 fps=9.4 q=24.8 size=N/A time=00:00:30.39 bitrate=N/A    frame=  916 fps=9.4 q=24.8 size=N/A time=00:00:30.56 bitrate=N/A    frame=  921 fps=9.4 q=24.8 size=N/A time=00:00:30.73 bitrate=N/A    frame=  925 fps=9.4 q=24.8 size=N/A time=00:00:30.86 bitrate=N/A    frame=  929 fps=9.4 q=24.8 size=N/A time=00:00:30.99 bitrate=N/A    frame=  933 fps=9.3 q=24.8 size=N/A time=00:00:31.13 bitrate=N/A    frame=  938 fps=9.4 q=24.8 size=N/A time=00:00:31.29 bitrate=N/A    frame=  943 fps=9.4 q=24.8 size=N/A time=00:00:31.46 bitrate=N/A    frame=  948 fps=9.4 q=24.8 size=N/A time=00:00:31.63 bitrate=N/A    frame=  953 fps=9.4 q=24.8 size=N/A time=00:00:31.79 bitrate=N/A    frame=  958 fps=9.4 q=24.8 size=N/A time=00:00:31.96 bitrate=N/A    frame=  962 fps=9.3 q=24.8 size=N/A time=00:00:32.09 bitrate=N/A    frame=  967 fps=9.3 q=24.8 size=N/A time=00:00:32.26 bitrate=N/A    frame=  972 fps=9.3 q=24.8 size=N/A time=00:00:32.43 bitrate=N/A    frame=  977 fps=9.3 q=24.8 size=N/A time=00:00:32.59 bitrate=N/A    frame=  982 fps=9.3 q=24.8 size=N/A time=00:00:32.76 bitrate=N/A    frame=  987 fps=9.4 q=24.8 size=N/A time=00:00:32.93 bitrate=N/A    frame=  991 fps=9.3 q=24.8 size=N/A time=00:00:33.06 bitrate=N/A    frame=  996 fps=9.3 q=24.8 size=N/A time=00:00:33.23 bitrate=N/A    frame= 1001 fps=9.3 q=24.8 size=N/A time=00:00:33.40 bitrate=N/A    frame= 1006 fps=9.3 q=24.8 size=N/A time=00:00:33.56 bitrate=N/A    frame= 1011 fps=9.3 q=24.8 size=N/A time=00:00:33.73 bitrate=N/A    frame= 1016 fps=9.3 q=24.8 size=N/A time=00:00:33.90 bitrate=N/A    frame= 1021 fps=9.3 q=24.8 size=N/A time=00:00:34.06 bitrate=N/A    frame= 1026 fps=9.3 q=24.8 size=N/A time=00:00:34.23 bitrate=N/A    frame= 1031 fps=9.3 q=24.8 size=N/A time=00:00:34.40 bitrate=N/A    frame= 1036 fps=9.3 q=24.8 size=N/A time=00:00:34.56 bitrate=N/A    frame= 1041 fps=9.3 q=24.8 size=N/A time=00:00:34.73 bitrate=N/A    frame= 1046 fps=9.3 q=24.8 size=N/A time=00:00:34.90 bitrate=N/A    frame= 1051 fps=9.3 q=24.8 size=N/A time=00:00:35.06 bitrate=N/A    frame= 1056 fps=9.3 q=24.8 size=N/A time=00:00:35.23 bitrate=N/A    frame= 1061 fps=9.3 q=24.8 size=N/A time=00:00:35.40 bitrate=N/A    frame= 1066 fps=9.3 q=24.8 size=N/A time=00:00:35.56 bitrate=N/A    frame= 1071 fps=9.3 q=24.8 size=N/A time=00:00:35.73 bitrate=N/A    frame= 1076 fps=9.3 q=24.8 size=N/A time=00:00:35.90 bitrate=N/A    frame= 1081 fps=9.3 q=24.8 size=N/A time=00:00:36.06 bitrate=N/A    frame= 1086 fps=9.3 q=24.8 size=N/A time=00:00:36.23 bitrate=N/A    frame= 1091 fps=9.3 q=24.8 size=N/A time=00:00:36.40 bitrate=N/A    frame= 1096 fps=9.3 q=24.8 size=N/A time=00:00:36.56 bitrate=N/A    frame= 1101 fps=9.3 q=24.8 size=N/A time=00:00:36.73 bitrate=N/A    frame= 1106 fps=9.3 q=24.8 size=N/A time=00:00:36.90 bitrate=N/A    frame= 1110 fps=9.3 q=24.8 size=N/A time=00:00:37.03 bitrate=N/A    frame= 1115 fps=9.3 q=24.8 size=N/A time=00:00:37.20 bitrate=N/A    frame= 1120 fps=9.3 q=24.8 size=N/A time=00:00:37.37 bitrate=N/A    frame= 1125 fps=9.3 q=24.8 size=N/A time=00:00:37.53 bitrate=N/A    frame= 1130 fps=9.3 q=24.8 size=N/A time=00:00:37.70 bitrate=N/A    frame= 1135 fps=9.3 q=24.8 size=N/A time=00:00:37.87 bitrate=N/A    frame= 1140 fps=9.3 q=24.8 size=N/A time=00:00:38.03 bitrate=N/A    frame= 1144 fps=9.3 q=24.8 size=N/A time=00:00:38.17 bitrate=N/A    frame= 1149 fps=9.3 q=24.8 size=N/A time=00:00:38.33 bitrate=N/A    frame= 1154 fps=9.3 q=24.8 size=N/A time=00:00:38.50 bitrate=N/A    frame= 1159 fps=9.3 q=24.8 size=N/A time=00:00:38.67 bitrate=N/A    frame= 1164 fps=9.3 q=24.8 size=N/A time=00:00:38.83 bitrate=N/A    frame= 1169 fps=9.3 q=24.8 size=N/A time=00:00:39.00 bitrate=N/A    frame= 1173 fps=9.3 q=24.8 size=N/A time=00:00:39.13 bitrate=N/A    frame= 1178 fps=9.3 q=24.8 size=N/A time=00:00:39.30 bitrate=N/A    frame= 1183 fps=9.3 q=24.8 size=N/A time=00:00:39.47 bitrate=N/A    frame= 1188 fps=9.3 q=24.8 size=N/A time=00:00:39.63 bitrate=N/A    frame= 1193 fps=9.3 q=24.8 size=N/A time=00:00:39.80 bitrate=N/A    frame= 1198 fps=9.3 q=24.8 size=N/A time=00:00:39.97 bitrate=N/A    frame= 1202 fps=9.3 q=24.8 size=N/A time=00:00:40.10 bitrate=N/A    frame= 1207 fps=9.3 q=24.8 size=N/A time=00:00:40.27 bitrate=N/A    frame= 1212 fps=9.3 q=24.8 size=N/A time=00:00:40.44 bitrate=N/A    frame= 1217 fps=9.3 q=24.8 size=N/A time=00:00:40.60 bitrate=N/A    frame= 1222 fps=9.3 q=24.8 size=N/A time=00:00:40.77 bitrate=N/A    frame= 1227 fps=9.3 q=24.8 size=N/A time=00:00:40.94 bitrate=N/A    frame= 1231 fps=9.3 q=24.8 size=N/A time=00:00:41.07 bitrate=N/A    frame= 1236 fps=9.3 q=24.8 size=N/A time=00:00:41.24 bitrate=N/A    frame= 1241 fps=9.3 q=24.8 size=N/A time=00:00:41.40 bitrate=N/A    frame= 1246 fps=9.3 q=24.8 size=N/A time=00:00:41.57 bitrate=N/A    frame= 1251 fps=9.3 q=24.8 size=N/A time=00:00:41.74 bitrate=N/A    frame= 1256 fps=9.3 q=24.8 size=N/A time=00:00:41.90 bitrate=N/A    frame= 1261 fps=9.3 q=24.8 size=N/A time=00:00:42.07 bitrate=N/A    frame= 1266 fps=9.3 q=24.8 size=N/A time=00:00:42.24 bitrate=N/A    frame= 1271 fps=9.3 q=24.8 size=N/A time=00:00:42.40 bitrate=N/A    frame= 1276 fps=9.3 q=24.8 size=N/A time=00:00:42.57 bitrate=N/A    frame= 1281 fps=9.3 q=24.8 size=N/A time=00:00:42.74 bitrate=N/A    frame= 1286 fps=9.3 q=24.8 size=N/A time=00:00:42.90 bitrate=N/A    frame= 1291 fps=9.3 q=24.8 size=N/A time=00:00:43.07 bitrate=N/A    frame= 1296 fps=9.3 q=24.8 size=N/A time=00:00:43.24 bitrate=N/A    frame= 1301 fps=9.3 q=24.8 size=N/A time=00:00:43.41 bitrate=N/A    frame= 1306 fps=9.3 q=24.8 size=N/A time=00:00:43.57 bitrate=N/A    frame= 1311 fps=9.3 q=24.8 size=N/A time=00:00:43.74 bitrate=N/A    frame= 1316 fps=9.3 q=24.8 size=N/A time=00:00:43.91 bitrate=N/A    frame= 1321 fps=9.3 q=24.8 size=N/A time=00:00:44.07 bitrate=N/A    frame= 1326 fps=9.3 q=24.8 size=N/A time=00:00:44.24 bitrate=N/A    frame= 1331 fps=9.3 q=24.8 size=N/A time=00:00:44.41 bitrate=N/A    frame= 1336 fps=9.3 q=24.8 size=N/A time=00:00:44.57 bitrate=N/A    frame= 1341 fps=9.3 q=24.8 size=N/A time=00:00:44.74 bitrate=N/A    frame= 1346 fps=9.3 q=24.8 size=N/A time=00:00:44.91 bitrate=N/A    frame= 1351 fps=9.3 q=24.8 size=N/A time=00:00:45.07 bitrate=N/A    frame= 1356 fps=9.3 q=24.8 size=N/A time=00:00:45.24 bitrate=N/A    frame= 1361 fps=9.3 q=24.8 size=N/A time=00:00:45.41 bitrate=N/A    frame= 1366 fps=9.3 q=24.8 size=N/A time=00:00:45.57 bitrate=N/A    frame= 1371 fps=9.3 q=24.8 size=N/A time=00:00:45.74 bitrate=N/A    frame= 1376 fps=9.3 q=24.8 size=N/A time=00:00:45.91 bitrate=N/A    frame= 1381 fps=9.3 q=24.8 size=N/A time=00:00:46.07 bitrate=N/A    frame= 1386 fps=9.3 q=24.8 size=N/A time=00:00:46.24 bitrate=N/A    frame= 1391 fps=9.3 q=24.8 size=N/A time=00:00:46.41 bitrate=N/A    frame= 1396 fps=9.3 q=24.8 size=N/A time=00:00:46.57 bitrate=N/A    frame= 1401 fps=9.3 q=24.8 size=N/A time=00:00:46.74 bitrate=N/A    frame= 1406 fps=9.3 q=24.8 size=N/A time=00:00:46.91 bitrate=N/A    frame= 1411 fps=9.3 q=24.8 size=N/A time=00:00:47.08 bitrate=N/A    frame= 1416 fps=9.3 q=24.8 size=N/A time=00:00:47.24 bitrate=N/A    frame= 1421 fps=9.3 q=24.8 size=N/A time=00:00:47.41 bitrate=N/A    frame= 1426 fps=9.3 q=24.8 size=N/A time=00:00:47.58 bitrate=N/A    frame= 1431 fps=9.3 q=24.8 size=N/A time=00:00:47.74 bitrate=N/A    frame= 1436 fps=9.3 q=24.8 size=N/A time=00:00:47.91 bitrate=N/A    frame= 1441 fps=9.3 q=24.8 size=N/A time=00:00:48.08 bitrate=N/A    frame= 1446 fps=9.3 q=24.8 size=N/A time=00:00:48.24 bitrate=N/A    frame= 1451 fps=9.3 q=24.8 size=N/A time=00:00:48.41 bitrate=N/A    frame= 1456 fps=9.3 q=24.8 size=N/A time=00:00:48.58 bitrate=N/A    frame= 1461 fps=9.3 q=24.8 size=N/A time=00:00:48.74 bitrate=N/A    frame= 1466 fps=9.3 q=24.8 size=N/A time=00:00:48.91 bitrate=N/A    frame= 1471 fps=9.3 q=24.8 size=N/A time=00:00:49.08 bitrate=N/A    frame= 1476 fps=9.3 q=24.8 size=N/A time=00:00:49.24 bitrate=N/A    frame= 1481 fps=9.3 q=24.8 size=N/A time=00:00:49.41 bitrate=N/A    frame= 1486 fps=9.3 q=24.8 size=N/A time=00:00:49.58 bitrate=N/A    frame= 1491 fps=9.3 q=24.8 size=N/A time=00:00:49.74 bitrate=N/A    frame= 1496 fps=9.3 q=24.8 size=N/A time=00:00:49.91 bitrate=N/A    frame= 1501 fps=9.3 q=24.8 size=N/A time=00:00:50.08 bitrate=N/A    frame= 1506 fps=9.3 q=24.8 size=N/A time=00:00:50.25 bitrate=N/A    frame= 1511 fps=9.3 q=24.8 size=N/A time=00:00:50.41 bitrate=N/A    frame= 1516 fps=9.3 q=24.8 size=N/A time=00:00:50.58 bitrate=N/A    frame= 1521 fps=9.3 q=24.8 size=N/A time=00:00:50.75 bitrate=N/A    frame= 1526 fps=9.3 q=24.8 size=N/A time=00:00:50.91 bitrate=N/A    frame= 1531 fps=9.3 q=24.8 size=N/A time=00:00:51.08 bitrate=N/A    frame= 1536 fps=9.3 q=24.8 size=N/A time=00:00:51.25 bitrate=N/A    frame= 1541 fps=9.3 q=24.8 size=N/A time=00:00:51.41 bitrate=N/A    frame= 1546 fps=9.3 q=24.8 size=N/A time=00:00:51.58 bitrate=N/A    frame= 1551 fps=9.3 q=24.8 size=N/A time=00:00:51.75 bitrate=N/A    frame= 1556 fps=9.3 q=24.8 size=N/A time=00:00:51.91 bitrate=N/A    frame= 1561 fps=9.3 q=24.8 size=N/A time=00:00:52.08 bitrate=N/A    frame= 1566 fps=9.3 q=24.8 size=N/A time=00:00:52.25 bitrate=N/A    frame= 1571 fps=9.3 q=24.8 size=N/A time=00:00:52.41 bitrate=N/A    frame= 1576 fps=9.3 q=24.8 size=N/A time=00:00:52.58 bitrate=N/A    frame= 1581 fps=9.3 q=24.8 size=N/A time=00:00:52.75 bitrate=N/A    frame= 1586 fps=9.3 q=24.8 size=N/A time=00:00:52.91 bitrate=N/A    frame= 1591 fps=9.3 q=24.8 size=N/A time=00:00:53.08 bitrate=N/A    frame= 1596 fps=9.3 q=24.8 size=N/A time=00:00:53.25 bitrate=N/A    frame= 1601 fps=9.3 q=24.8 size=N/A time=00:00:53.42 bitrate=N/A    frame= 1607 fps=9.3 q=24.8 size=N/A time=00:00:53.62 bitrate=N/A    frame= 1612 fps=9.3 q=24.8 size=N/A time=00:00:53.78 bitrate=N/A    frame= 1618 fps=9.3 q=24.8 size=N/A time=00:00:53.98 bitrate=N/A    frame= 1622 fps=9.3 q=24.8 size=N/A time=00:00:54.12 bitrate=N/A    frame= 1627 fps=9.3 q=24.8 size=N/A time=00:00:54.28 bitrate=N/A    frame= 1632 fps=9.3 q=24.8 size=N/A time=00:00:54.45 bitrate=N/A    frame= 1637 fps=9.3 q=24.8 size=N/A time=00:00:54.62 bitrate=N/A    frame= 1642 fps=9.3 q=24.8 size=N/A time=00:00:54.78 bitrate=N/A    frame= 1647 fps=9.3 q=24.8 size=N/A time=00:00:54.95 bitrate=N/A    frame= 1651 fps=9.3 q=24.8 size=N/A time=00:00:55.08 bitrate=N/A    frame= 1656 fps=9.3 q=24.8 size=N/A time=00:00:55.25 bitrate=N/A    frame= 1661 fps=9.3 q=24.8 size=N/A time=00:00:55.42 bitrate=N/A    frame= 1666 fps=9.3 q=24.8 size=N/A time=00:00:55.58 bitrate=N/A    frame= 1671 fps=9.3 q=24.8 size=N/A time=00:00:55.75 bitrate=N/A    frame= 1676 fps=9.3 q=24.8 size=N/A time=00:00:55.92 bitrate=N/A    frame= 1681 fps=9.3 q=24.8 size=N/A time=00:00:56.08 bitrate=N/A    frame= 1686 fps=9.3 q=24.8 size=N/A time=00:00:56.25 bitrate=N/A    frame= 1691 fps=9.3 q=24.8 size=N/A time=00:00:56.42 bitrate=N/A    frame= 1696 fps=9.3 q=24.8 size=N/A time=00:00:56.58 bitrate=N/A    frame= 1701 fps=9.3 q=24.8 size=N/A time=00:00:56.75 bitrate=N/A    frame= 1706 fps=9.3 q=24.8 size=N/A time=00:00:56.92 bitrate=N/A    frame= 1711 fps=9.3 q=24.8 size=N/A time=00:00:57.09 bitrate=N/A    frame= 1716 fps=9.3 q=24.8 size=N/A time=00:00:57.25 bitrate=N/A    frame= 1721 fps=9.3 q=24.8 size=N/A time=00:00:57.42 bitrate=N/A    frame= 1726 fps=9.3 q=24.8 size=N/A time=00:00:57.59 bitrate=N/A    frame= 1731 fps=9.3 q=24.8 size=N/A time=00:00:57.75 bitrate=N/A    frame= 1736 fps=9.3 q=24.8 size=N/A time=00:00:57.92 bitrate=N/A    frame= 1741 fps=9.3 q=24.8 size=N/A time=00:00:58.09 bitrate=N/A    frame= 1746 fps=9.3 q=24.8 size=N/A time=00:00:58.25 bitrate=N/A    frame= 1751 fps=9.3 q=24.8 size=N/A time=00:00:58.42 bitrate=N/A    frame= 1756 fps=9.3 q=24.8 size=N/A time=00:00:58.59 bitrate=N/A    frame= 1761 fps=9.3 q=24.8 size=N/A time=00:00:58.75 bitrate=N/A    frame= 1766 fps=9.3 q=24.8 size=N/A time=00:00:58.92 bitrate=N/A    frame= 1771 fps=9.3 q=24.8 size=N/A time=00:00:59.09 bitrate=N/A    frame= 1776 fps=9.3 q=24.8 size=N/A time=00:00:59.25 bitrate=N/A    frame= 1781 fps=9.3 q=24.8 size=N/A time=00:00:59.42 bitrate=N/A    frame= 1786 fps=9.3 q=24.8 size=N/A time=00:00:59.59 bitrate=N/A    frame= 1791 fps=9.3 q=24.8 size=N/A time=00:00:59.75 bitrate=N/A    frame= 1796 fps=9.3 q=24.8 size=N/A time=00:00:59.92 bitrate=N/A    frame= 1800 fps=9.3 q=24.8 size=N/A time=00:01:00.06 bitrate=N/A    frame= 1805 fps=9.3 q=24.8 size=N/A time=00:01:00.22 bitrate=N/A    frame= 1810 fps=9.3 q=24.8 size=N/A time=00:01:00.39 bitrate=N/A    frame= 1815 fps=9.3 q=24.8 size=N/A time=00:01:00.56 bitrate=N/A    frame= 1820 fps=9.3 q=24.8 size=N/A time=00:01:00.72 bitrate=N/A    frame= 1825 fps=9.3 q=24.8 size=N/A time=00:01:00.89 bitrate=N/A    frame= 1830 fps=9.3 q=24.8 size=N/A time=00:01:01.06 bitrate=N/A    frame= 1834 fps=9.3 q=24.8 size=N/A time=00:01:01.19 bitrate=N/A    frame= 1839 fps=9.3 q=24.8 size=N/A time=00:01:01.36 bitrate=N/A    frame= 1844 fps=9.3 q=24.8 size=N/A time=00:01:01.52 bitrate=N/A    frame= 1849 fps=9.3 q=24.8 size=N/A time=00:01:01.69 bitrate=N/A    frame= 1854 fps=9.3 q=24.8 size=N/A time=00:01:01.86 bitrate=N/A    frame= 1859 fps=9.3 q=24.8 size=N/A time=00:01:02.02 bitrate=N/A    frame= 1863 fps=9.3 q=24.8 size=N/A time=00:01:02.16 bitrate=N/A    frame= 1868 fps=9.3 q=24.8 size=N/A time=00:01:02.32 bitrate=N/A    frame= 1873 fps=9.3 q=24.8 size=N/A time=00:01:02.49 bitrate=N/A    frame= 1878 fps=9.3 q=24.8 size=N/A time=00:01:02.66 bitrate=N/A    frame= 1883 fps=9.3 q=24.8 size=N/A time=00:01:02.82 bitrate=N/A    frame= 1888 fps=9.3 q=24.8 size=N/A time=00:01:02.99 bitrate=N/A    frame= 1892 fps=9.3 q=24.8 size=N/A time=00:01:03.12 bitrate=N/A    frame= 1897 fps=9.3 q=24.8 size=N/A time=00:01:03.29 bitrate=N/A    frame= 1902 fps=9.3 q=24.8 size=N/A time=00:01:03.46 bitrate=N/A    frame= 1907 fps=9.3 q=24.8 size=N/A time=00:01:03.63 bitrate=N/A    frame= 1912 fps=9.3 q=24.8 size=N/A time=00:01:03.79 bitrate=N/A    frame= 1917 fps=9.3 q=24.8 size=N/A time=00:01:03.96 bitrate=N/A    frame= 1921 fps=9.3 q=24.8 size=N/A time=00:01:04.09 bitrate=N/A    frame= 1926 fps=9.3 q=24.8 size=N/A time=00:01:04.26 bitrate=N/A    frame= 1931 fps=9.3 q=24.8 size=N/A time=00:01:04.43 bitrate=N/A    frame= 1936 fps=9.3 q=24.8 size=N/A time=00:01:04.59 bitrate=N/A    frame= 1941 fps=9.3 q=24.8 size=N/A time=00:01:04.76 bitrate=N/A    frame= 1946 fps=9.3 q=24.8 size=N/A time=00:01:04.93 bitrate=N/A    frame= 1951 fps=9.3 q=24.8 size=N/A time=00:01:05.09 bitrate=N/A    frame= 1956 fps=9.3 q=24.8 size=N/A time=00:01:05.26 bitrate=N/A    frame= 1961 fps=9.3 q=24.8 size=N/A time=00:01:05.43 bitrate=N/A    frame= 1966 fps=9.3 q=24.8 size=N/A time=00:01:05.59 bitrate=N/A    frame= 1971 fps=9.3 q=24.8 size=N/A time=00:01:05.76 bitrate=N/A    frame= 1976 fps=9.3 q=24.8 size=N/A time=00:01:05.93 bitrate=N/A    frame= 1981 fps=9.3 q=24.8 size=N/A time=00:01:06.09 bitrate=N/A    frame= 1986 fps=9.3 q=24.8 size=N/A time=00:01:06.26 bitrate=N/A    frame= 1991 fps=9.3 q=24.8 size=N/A time=00:01:06.43 bitrate=N/A    frame= 1996 fps=9.3 q=24.8 size=N/A time=00:01:06.59 bitrate=N/A    frame= 2001 fps=9.3 q=24.8 size=N/A time=00:01:06.76 bitrate=N/A    frame= 2006 fps=9.3 q=24.8 size=N/A time=00:01:06.93 bitrate=N/A    frame= 2011 fps=9.3 q=24.8 size=N/A time=00:01:07.10 bitrate=N/A    frame= 2016 fps=9.3 q=24.8 size=N/A time=00:01:07.26 bitrate=N/A    frame= 2021 fps=9.3 q=24.8 size=N/A time=00:01:07.43 bitrate=N/A    frame= 2026 fps=9.3 q=24.8 size=N/A time=00:01:07.60 bitrate=N/A    frame= 2031 fps=9.3 q=24.8 size=N/A time=00:01:07.76 bitrate=N/A    frame= 2036 fps=9.3 q=24.8 size=N/A time=00:01:07.93 bitrate=N/A    frame= 2041 fps=9.3 q=24.8 size=N/A time=00:01:08.10 bitrate=N/A    frame= 2046 fps=9.3 q=24.8 size=N/A time=00:01:08.26 bitrate=N/A    frame= 2051 fps=9.3 q=24.8 size=N/A time=00:01:08.43 bitrate=N/A    frame= 2056 fps=9.3 q=24.8 size=N/A time=00:01:08.60 bitrate=N/A    frame= 2061 fps=9.3 q=24.8 size=N/A time=00:01:08.76 bitrate=N/A    frame= 2066 fps=9.3 q=24.8 size=N/A time=00:01:08.93 bitrate=N/A    frame= 2070 fps=9.3 q=24.8 size=N/A time=00:01:09.06 bitrate=N/A    frame= 2075 fps=9.3 q=24.8 size=N/A time=00:01:09.23 bitrate=N/A    frame= 2080 fps=9.3 q=24.8 size=N/A time=00:01:09.40 bitrate=N/A    frame= 2085 fps=9.3 q=24.8 size=N/A time=00:01:09.56 bitrate=N/A    frame= 2090 fps=9.3 q=24.8 size=N/A time=00:01:09.73 bitrate=N/A    frame= 2095 fps=9.3 q=24.8 size=N/A time=00:01:09.90 bitrate=N/A    frame= 2100 fps=9.3 q=24.8 size=N/A time=00:01:10.07 bitrate=N/A    frame= 2104 fps=9.3 q=24.8 size=N/A time=00:01:10.20 bitrate=N/A    frame= 2109 fps=9.3 q=24.8 size=N/A time=00:01:10.37 bitrate=N/A    frame= 2114 fps=9.3 q=24.8 size=N/A time=00:01:10.53 bitrate=N/A    frame= 2119 fps=9.3 q=24.8 size=N/A time=00:01:10.70 bitrate=N/A    frame= 2124 fps=9.3 q=24.8 size=N/A time=00:01:10.87 bitrate=N/A    frame= 2129 fps=9.3 q=24.8 size=N/A time=00:01:11.03 bitrate=N/A    frame= 2132 fps=9.3 q=24.8 size=N/A time=00:01:11.13 bitrate=N/A    frame= 2137 fps=9.3 q=24.8 size=N/A time=00:01:11.30 bitrate=N/A    frame= 2142 fps=9.3 q=24.8 size=N/A time=00:01:11.47 bitrate=N/A    frame= 2147 fps=9.3 q=24.8 size=N/A time=00:01:11.63 bitrate=N/A    frame= 2152 fps=9.3 q=24.8 size=N/A time=00:01:11.80 bitrate=N/A    frame= 2157 fps=9.3 q=24.8 size=N/A time=00:01:11.97 bitrate=N/A    frame= 2161 fps=9.3 q=24.8 size=N/A time=00:01:12.10 bitrate=N/A    frame= 2166 fps=9.3 q=24.8 size=N/A time=00:01:12.27 bitrate=N/A    frame= 2171 fps=9.3 q=24.8 size=N/A time=00:01:12.43 bitrate=N/A    frame= 2176 fps=9.3 q=24.8 size=N/A time=00:01:12.60 bitrate=N/A    frame= 2181 fps=9.3 q=24.8 size=N/A time=00:01:12.77 bitrate=N/A    frame= 2186 fps=9.3 q=24.8 size=N/A time=00:01:12.93 bitrate=N/A    frame= 2191 fps=9.3 q=24.8 size=N/A time=00:01:13.10 bitrate=N/A    frame= 2196 fps=9.3 q=24.8 size=N/A time=00:01:13.27 bitrate=N/A    frame= 2201 fps=9.3 q=24.8 size=N/A time=00:01:13.44 bitrate=N/A    frame= 2206 fps=9.3 q=24.8 size=N/A time=00:01:13.60 bitrate=N/A    frame= 2211 fps=9.3 q=24.8 size=N/A time=00:01:13.77 bitrate=N/A    frame= 2216 fps=9.3 q=24.8 size=N/A time=00:01:13.94 bitrate=N/A    frame= 2221 fps=9.3 q=24.8 size=N/A time=00:01:14.10 bitrate=N/A    frame= 2226 fps=9.3 q=24.8 size=N/A time=00:01:14.27 bitrate=N/A    frame= 2231 fps=9.3 q=24.8 size=N/A time=00:01:14.44 bitrate=N/A    frame= 2236 fps=9.3 q=24.8 size=N/A time=00:01:14.60 bitrate=N/A    frame= 2241 fps=9.3 q=24.8 size=N/A time=00:01:14.77 bitrate=N/A    frame= 2246 fps=9.3 q=24.8 size=N/A time=00:01:14.94 bitrate=N/A    frame= 2251 fps=9.3 q=24.8 size=N/A time=00:01:15.10 bitrate=N/A    frame= 2256 fps=9.3 q=24.8 size=N/A time=00:01:15.27 bitrate=N/A    frame= 2261 fps=9.3 q=24.8 size=N/A time=00:01:15.44 bitrate=N/A    frame= 2266 fps=9.3 q=24.8 size=N/A time=00:01:15.60 bitrate=N/A    frame= 2271 fps=9.3 q=24.8 size=N/A time=00:01:15.77 bitrate=N/A    frame= 2276 fps=9.3 q=24.8 size=N/A time=00:01:15.94 bitrate=N/A    frame= 2281 fps=9.3 q=24.8 size=N/A time=00:01:16.10 bitrate=N/A    frame= 2286 fps=9.3 q=24.8 size=N/A time=00:01:16.27 bitrate=N/A    frame= 2291 fps=9.3 q=24.8 size=N/A time=00:01:16.44 bitrate=N/A    frame= 2296 fps=9.3 q=24.8 size=N/A time=00:01:16.60 bitrate=N/A    frame= 2301 fps=9.3 q=24.8 size=N/A time=00:01:16.77 bitrate=N/A    frame= 2306 fps=9.3 q=24.8 size=N/A time=00:01:16.94 bitrate=N/A    frame= 2311 fps=9.3 q=24.8 size=N/A time=00:01:17.11 bitrate=N/A    frame= 2316 fps=9.3 q=24.8 size=N/A time=00:01:17.27 bitrate=N/A    frame= 2321 fps=9.3 q=24.8 size=N/A time=00:01:17.44 bitrate=N/A    frame= 2326 fps=9.3 q=24.8 size=N/A time=00:01:17.61 bitrate=N/A    frame= 2331 fps=9.3 q=24.8 size=N/A time=00:01:17.77 bitrate=N/A    frame= 2336 fps=9.3 q=24.8 size=N/A time=00:01:17.94 bitrate=N/A    frame= 2341 fps=9.3 q=24.8 size=N/A time=00:01:18.11 bitrate=N/A    frame= 2346 fps=9.3 q=24.8 size=N/A time=00:01:18.27 bitrate=N/A    frame= 2351 fps=9.3 q=24.8 size=N/A time=00:01:18.44 bitrate=N/A    frame= 2356 fps=9.3 q=24.8 size=N/A time=00:01:18.61 bitrate=N/A    frame= 2361 fps=9.3 q=24.8 size=N/A time=00:01:18.77 bitrate=N/A    frame= 2366 fps=9.3 q=24.8 size=N/A time=00:01:18.94 bitrate=N/A    frame= 2371 fps=9.3 q=24.8 size=N/A time=00:01:19.11 bitrate=N/A    frame= 2376 fps=9.3 q=24.8 size=N/A time=00:01:19.27 bitrate=N/A    frame= 2381 fps=9.3 q=24.8 size=N/A time=00:01:19.44 bitrate=N/A    frame= 2386 fps=9.3 q=24.8 size=N/A time=00:01:19.61 bitrate=N/A    frame= 2391 fps=9.3 q=24.8 size=N/A time=00:01:19.77 bitrate=N/A    frame= 2396 fps=9.3 q=24.8 size=N/A time=00:01:19.94 bitrate=N/A    frame= 2401 fps=9.3 q=24.8 size=N/A time=00:01:20.11 bitrate=N/A    frame= 2406 fps=9.3 q=24.8 size=N/A time=00:01:20.28 bitrate=N/A    frame= 2411 fps=9.3 q=24.8 size=N/A time=00:01:20.44 bitrate=N/A    frame= 2416 fps=9.3 q=24.8 size=N/A time=00:01:20.61 bitrate=N/A    frame= 2421 fps=9.3 q=24.8 size=N/A time=00:01:20.78 bitrate=N/A    frame= 2426 fps=9.3 q=24.8 size=N/A time=00:01:20.94 bitrate=N/A    frame= 2431 fps=9.3 q=24.8 size=N/A time=00:01:21.11 bitrate=N/A    frame= 2436 fps=9.3 q=24.8 size=N/A time=00:01:21.28 bitrate=N/A    frame= 2441 fps=9.3 q=24.8 size=N/A time=00:01:21.44 bitrate=N/A    frame= 2446 fps=9.3 q=24.8 size=N/A time=00:01:21.61 bitrate=N/A    frame= 2451 fps=9.3 q=24.8 size=N/A time=00:01:21.78 bitrate=N/A    frame= 2456 fps=9.3 q=24.8 size=N/A time=00:01:21.94 bitrate=N/A    frame= 2461 fps=9.2 q=24.8 size=N/A time=00:01:22.11 bitrate=N/A    frame= 2466 fps=9.2 q=24.8 size=N/A time=00:01:22.28 bitrate=N/A    frame= 2471 fps=9.2 q=24.8 size=N/A time=00:01:22.44 bitrate=N/A    frame= 2476 fps=9.3 q=24.8 size=N/A time=00:01:22.61 bitrate=N/A    frame= 2481 fps=9.3 q=24.8 size=N/A time=00:01:22.78 bitrate=N/A    frame= 2486 fps=9.3 q=24.8 size=N/A time=00:01:22.94 bitrate=N/A    frame= 2491 fps=9.2 q=24.8 size=N/A time=00:01:23.11 bitrate=N/A    frame= 2496 fps=9.2 q=24.8 size=N/A time=00:01:23.28 bitrate=N/A    frame= 2501 fps=9.2 q=24.8 size=N/A time=00:01:23.45 bitrate=N/A    frame= 2506 fps=9.2 q=24.8 size=N/A time=00:01:23.61 bitrate=N/A    frame= 2511 fps=9.2 q=24.8 size=N/A time=00:01:23.78 bitrate=N/A    frame= 2516 fps=9.2 q=24.8 size=N/A time=00:01:23.95 bitrate=N/A    frame= 2521 fps=9.2 q=24.8 size=N/A time=00:01:24.11 bitrate=N/A    frame= 2526 fps=9.2 q=24.8 size=N/A time=00:01:24.28 bitrate=N/A    frame= 2531 fps=9.2 q=24.8 size=N/A time=00:01:24.45 bitrate=N/A    frame= 2536 fps=9.2 q=24.8 size=N/A time=00:01:24.61 bitrate=N/A    frame= 2541 fps=9.2 q=24.8 size=N/A time=00:01:24.78 bitrate=N/A    frame= 2546 fps=9.2 q=24.8 size=N/A time=00:01:24.95 bitrate=N/A    frame= 2551 fps=9.2 q=24.8 size=N/A time=00:01:25.11 bitrate=N/A    frame= 2556 fps=9.2 q=24.8 size=N/A time=00:01:25.28 bitrate=N/A    frame= 2561 fps=9.2 q=24.8 size=N/A time=00:01:25.45 bitrate=N/A    frame= 2566 fps=9.2 q=24.8 size=N/A time=00:01:25.61 bitrate=N/A    frame= 2571 fps=9.2 q=24.8 size=N/A time=00:01:25.78 bitrate=N/A    frame= 2576 fps=9.2 q=24.8 size=N/A time=00:01:25.95 bitrate=N/A    frame= 2581 fps=9.2 q=24.8 size=N/A time=00:01:26.11 bitrate=N/A    frame= 2586 fps=9.2 q=24.8 size=N/A time=00:01:26.28 bitrate=N/A    frame= 2591 fps=9.2 q=24.8 size=N/A time=00:01:26.45 bitrate=N/A    frame= 2596 fps=9.2 q=24.8 size=N/A time=00:01:26.61 bitrate=N/A    frame= 2601 fps=9.2 q=24.8 size=N/A time=00:01:26.78 bitrate=N/A    frame= 2606 fps=9.2 q=24.8 size=N/A time=00:01:26.95 bitrate=N/A    frame= 2611 fps=9.2 q=24.8 size=N/A time=00:01:27.12 bitrate=N/A    frame= 2616 fps=9.2 q=24.8 size=N/A time=00:01:27.28 bitrate=N/A    frame= 2621 fps=9.2 q=24.8 size=N/A time=00:01:27.45 bitrate=N/A    frame= 2626 fps=9.2 q=24.8 size=N/A time=00:01:27.62 bitrate=N/A    frame= 2631 fps=9.2 q=24.8 size=N/A time=00:01:27.78 bitrate=N/A    frame= 2636 fps=9.2 q=24.8 size=N/A time=00:01:27.95 bitrate=N/A    frame= 2640 fps=9.2 q=24.8 size=N/A time=00:01:28.08 bitrate=N/A    frame= 2645 fps=9.2 q=24.8 size=N/A time=00:01:28.25 bitrate=N/A    frame= 2650 fps=9.2 q=24.8 size=N/A time=00:01:28.42 bitrate=N/A    frame= 2655 fps=9.2 q=24.8 size=N/A time=00:01:28.58 bitrate=N/A    frame= 2660 fps=9.2 q=24.8 size=N/A time=00:01:28.75 bitrate=N/A    frame= 2665 fps=9.2 q=24.8 size=N/A time=00:01:28.92 bitrate=N/A    frame= 2670 fps=9.2 q=24.8 size=N/A time=00:01:29.08 bitrate=N/A    frame= 2675 fps=9.2 q=24.8 size=N/A time=00:01:29.25 bitrate=N/A    frame= 2680 fps=9.2 q=24.8 size=N/A time=00:01:29.42 bitrate=N/A    frame= 2685 fps=9.2 q=24.8 size=N/A time=00:01:29.58 bitrate=N/A    frame= 2690 fps=9.2 q=24.8 size=N/A time=00:01:29.75 bitrate=N/A    frame= 2695 fps=9.2 q=24.8 size=N/A time=00:01:29.92 bitrate=N/A    frame= 2700 fps=9.2 q=24.8 size=N/A time=00:01:30.09 bitrate=N/A    frame= 2705 fps=9.2 q=24.8 size=N/A time=00:01:30.25 bitrate=N/A    frame= 2710 fps=9.2 q=24.8 size=N/A time=00:01:30.42 bitrate=N/A    frame= 2715 fps=9.2 q=24.8 size=N/A time=00:01:30.59 bitrate=N/A    frame= 2720 fps=9.2 q=24.8 size=N/A time=00:01:30.75 bitrate=N/A    frame= 2725 fps=9.2 q=24.8 size=N/A time=00:01:30.92 bitrate=N/A    frame= 2730 fps=9.2 q=24.8 size=N/A time=00:01:31.09 bitrate=N/A    frame= 2734 fps=9.2 q=24.8 size=N/A time=00:01:31.22 bitrate=N/A    frame= 2739 fps=9.2 q=24.8 size=N/A time=00:01:31.39 bitrate=N/A    frame= 2744 fps=9.2 q=24.8 size=N/A time=00:01:31.55 bitrate=N/A    frame= 2749 fps=9.2 q=24.8 size=N/A time=00:01:31.72 bitrate=N/A    frame= 2754 fps=9.2 q=24.8 size=N/A time=00:01:31.89 bitrate=N/A    frame= 2759 fps=9.2 q=24.8 size=N/A time=00:01:32.05 bitrate=N/A    frame= 2764 fps=9.2 q=24.8 size=N/A time=00:01:32.22 bitrate=N/A    frame= 2769 fps=9.2 q=24.8 size=N/A time=00:01:32.39 bitrate=N/A    frame= 2774 fps=9.2 q=24.8 size=N/A time=00:01:32.55 bitrate=N/A    frame= 2779 fps=9.2 q=24.8 size=N/A time=00:01:32.72 bitrate=N/A    frame= 2784 fps=9.2 q=24.8 size=N/A time=00:01:32.89 bitrate=N/A    frame= 2789 fps=9.2 q=24.8 size=N/A time=00:01:33.05 bitrate=N/A    frame= 2793 fps=9.2 q=24.8 size=N/A time=00:01:33.19 bitrate=N/A    frame= 2798 fps=9.2 q=24.8 size=N/A time=00:01:33.35 bitrate=N/A    frame= 2803 fps=9.2 q=24.8 size=N/A time=00:01:33.52 bitrate=N/A    frame= 2808 fps=9.2 q=24.8 size=N/A time=00:01:33.69 bitrate=N/A    frame= 2813 fps=9.2 q=24.8 size=N/A time=00:01:33.86 bitrate=N/A    frame= 2818 fps=9.2 q=24.8 size=N/A time=00:01:34.02 bitrate=N/A    frame= 2822 fps=9.2 q=24.8 size=N/A time=00:01:34.16 bitrate=N/A    frame= 2827 fps=9.2 q=24.8 size=N/A time=00:01:34.32 bitrate=N/A    frame= 2832 fps=9.2 q=24.8 size=N/A time=00:01:34.49 bitrate=N/A    frame= 2837 fps=9.2 q=24.8 size=N/A time=00:01:34.66 bitrate=N/A    frame= 2842 fps=9.2 q=24.8 size=N/A time=00:01:34.82 bitrate=N/A    frame= 2847 fps=9.2 q=24.8 size=N/A time=00:01:34.99 bitrate=N/A    frame= 2852 fps=9.2 q=24.8 size=N/A time=00:01:35.16 bitrate=N/A    frame= 2857 fps=9.2 q=24.8 size=N/A time=00:01:35.32 bitrate=N/A    frame= 2862 fps=9.2 q=24.8 size=N/A time=00:01:35.49 bitrate=N/A    frame= 2867 fps=9.2 q=24.8 size=N/A time=00:01:35.66 bitrate=N/A    frame= 2872 fps=9.2 q=24.8 size=N/A time=00:01:35.82 bitrate=N/A    frame= 2877 fps=9.2 q=24.8 size=N/A time=00:01:35.99 bitrate=N/A    frame= 2882 fps=9.2 q=24.8 size=N/A time=00:01:36.16 bitrate=N/A    frame= 2887 fps=9.2 q=24.8 size=N/A time=00:01:36.32 bitrate=N/A    frame= 2892 fps=9.2 q=24.8 size=N/A time=00:01:36.49 bitrate=N/A    frame= 2897 fps=9.2 q=24.8 size=N/A time=00:01:36.66 bitrate=N/A    frame= 2902 fps=9.2 q=24.8 size=N/A time=00:01:36.83 bitrate=N/A    frame= 2907 fps=9.2 q=24.8 size=N/A time=00:01:36.99 bitrate=N/A    frame= 2911 fps=9.2 q=24.8 size=N/A time=00:01:37.13 bitrate=N/A    frame= 2916 fps=9.2 q=24.8 size=N/A time=00:01:37.29 bitrate=N/A    frame= 2921 fps=9.2 q=24.8 size=N/A time=00:01:37.46 bitrate=N/A    frame= 2926 fps=9.2 q=24.8 size=N/A time=00:01:37.63 bitrate=N/A    frame= 2931 fps=9.2 q=24.8 size=N/A time=00:01:37.79 bitrate=N/A    frame= 2936 fps=9.2 q=24.8 size=N/A time=00:01:37.96 bitrate=N/A    frame= 2941 fps=9.2 q=24.8 size=N/A time=00:01:38.13 bitrate=N/A    frame= 2946 fps=9.2 q=24.8 size=N/A time=00:01:38.29 bitrate=N/A    frame= 2951 fps=9.2 q=24.8 size=N/A time=00:01:38.46 bitrate=N/A    frame= 2956 fps=9.2 q=24.8 size=N/A time=00:01:38.63 bitrate=N/A    frame= 2961 fps=9.2 q=24.8 size=N/A time=00:01:38.79 bitrate=N/A    frame= 2966 fps=9.2 q=24.8 size=N/A time=00:01:38.96 bitrate=N/A    frame= 2970 fps=9.2 q=24.8 size=N/A time=00:01:39.09 bitrate=N/A    frame= 2975 fps=9.2 q=24.8 size=N/A time=00:01:39.26 bitrate=N/A    frame= 2980 fps=9.2 q=24.8 size=N/A time=00:01:39.43 bitrate=N/A    frame= 2985 fps=9.2 q=24.8 size=N/A time=00:01:39.59 bitrate=N/A    frame= 2990 fps=9.2 q=24.8 size=N/A time=00:01:39.76 bitrate=N/A    frame= 2995 fps=9.2 q=24.8 size=N/A time=00:01:39.93 bitrate=N/A    frame= 3000 fps=9.2 q=24.8 size=N/A time=00:01:40.10 bitrate=N/A    frame= 3005 fps=9.2 q=24.8 size=N/A time=00:01:40.26 bitrate=N/A    frame= 3010 fps=9.2 q=24.8 size=N/A time=00:01:40.43 bitrate=N/A    frame= 3015 fps=9.2 q=24.8 size=N/A time=00:01:40.60 bitrate=N/A    frame= 3020 fps=9.2 q=24.8 size=N/A time=00:01:40.76 bitrate=N/A    frame= 3025 fps=9.2 q=24.8 size=N/A time=00:01:40.93 bitrate=N/A    frame= 3030 fps=9.2 q=24.8 size=N/A time=00:01:41.10 bitrate=N/A    frame= 3035 fps=9.2 q=24.8 size=N/A time=00:01:41.26 bitrate=N/A    frame= 3040 fps=9.2 q=24.8 size=N/A time=00:01:41.43 bitrate=N/A    frame= 3045 fps=9.2 q=24.8 size=N/A time=00:01:41.60 bitrate=N/A    frame= 3050 fps=9.2 q=24.8 size=N/A time=00:01:41.76 bitrate=N/A    frame= 3055 fps=9.2 q=24.8 size=N/A time=00:01:41.93 bitrate=N/A    frame= 3059 fps=9.2 q=24.8 size=N/A time=00:01:42.06 bitrate=N/A    frame= 3064 fps=9.2 q=24.8 size=N/A time=00:01:42.23 bitrate=N/A    frame= 3069 fps=9.2 q=24.8 size=N/A time=00:01:42.40 bitrate=N/A    frame= 3074 fps=9.2 q=24.8 size=N/A time=00:01:42.56 bitrate=N/A    frame= 3079 fps=9.2 q=24.8 size=N/A time=00:01:42.73 bitrate=N/A    frame= 3084 fps=9.2 q=24.8 size=N/A time=00:01:42.90 bitrate=N/A    frame= 3089 fps=9.2 q=24.8 size=N/A time=00:01:43.06 bitrate=N/A    frame= 3094 fps=9.2 q=24.8 size=N/A time=00:01:43.23 bitrate=N/A    frame= 3099 fps=9.2 q=24.8 size=N/A time=00:01:43.40 bitrate=N/A    frame= 3104 fps=9.2 q=24.8 size=N/A time=00:01:43.57 bitrate=N/A    frame= 3109 fps=9.2 q=24.8 size=N/A time=00:01:43.73 bitrate=N/A    frame= 3114 fps=9.2 q=24.8 size=N/A time=00:01:43.90 bitrate=N/A    frame= 3119 fps=9.2 q=24.8 size=N/A time=00:01:44.07 bitrate=N/A    frame= 3124 fps=9.2 q=24.8 size=N/A time=00:01:44.23 bitrate=N/A    frame= 3129 fps=9.2 q=24.8 size=N/A time=00:01:44.40 bitrate=N/A    frame= 3134 fps=9.2 q=24.8 size=N/A time=00:01:44.57 bitrate=N/A    frame= 3139 fps=9.2 q=24.8 size=N/A time=00:01:44.73 bitrate=N/A    frame= 3144 fps=9.2 q=24.8 size=N/A time=00:01:44.90 bitrate=N/A    frame= 3149 fps=9.2 q=24.8 size=N/A time=00:01:45.07 bitrate=N/A    frame= 3153 fps=9.2 q=24.8 size=N/A time=00:01:45.20 bitrate=N/A    frame= 3158 fps=9.2 q=24.8 size=N/A time=00:01:45.37 bitrate=N/A    frame= 3163 fps=9.2 q=24.8 size=N/A time=00:01:45.53 bitrate=N/A    frame= 3168 fps=9.2 q=24.8 size=N/A time=00:01:45.70 bitrate=N/A    frame= 3173 fps=9.2 q=24.8 size=N/A time=00:01:45.87 bitrate=N/A    frame= 3178 fps=9.2 q=24.8 size=N/A time=00:01:46.03 bitrate=N/A    frame= 3182 fps=9.2 q=24.8 size=N/A time=00:01:46.17 bitrate=N/A    frame= 3187 fps=9.2 q=24.8 size=N/A time=00:01:46.33 bitrate=N/A    frame= 3192 fps=9.2 q=24.8 size=N/A time=00:01:46.50 bitrate=N/A    frame= 3197 fps=9.2 q=24.8 size=N/A time=00:01:46.67 bitrate=N/A    frame= 3202 fps=9.2 q=24.8 size=N/A time=00:01:46.84 bitrate=N/A    frame= 3207 fps=9.2 q=24.8 size=N/A time=00:01:47.00 bitrate=N/A    frame= 3212 fps=9.2 q=24.8 size=N/A time=00:01:47.17 bitrate=N/A    frame= 3217 fps=9.2 q=24.8 size=N/A time=00:01:47.34 bitrate=N/A    frame= 3222 fps=9.2 q=24.8 size=N/A time=00:01:47.50 bitrate=N/A    frame= 3228 fps=9.2 q=24.8 size=N/A time=00:01:47.70 bitrate=N/A    frame= 3233 fps=9.2 q=24.8 size=N/A time=00:01:47.87 bitrate=N/A    frame= 3238 fps=9.2 q=24.8 size=N/A time=00:01:48.04 bitrate=N/A    frame= 3242 fps=9.2 q=24.8 size=N/A time=00:01:48.17 bitrate=N/A    frame= 3247 fps=9.2 q=24.8 size=N/A time=00:01:48.34 bitrate=N/A    frame= 3252 fps=9.2 q=24.8 size=N/A time=00:01:48.50 bitrate=N/A    frame= 3257 fps=9.2 q=24.8 size=N/A time=00:01:48.67 bitrate=N/A    frame= 3262 fps=9.2 q=24.8 size=N/A time=00:01:48.84 bitrate=N/A    frame= 3267 fps=9.2 q=24.8 size=N/A time=00:01:49.00 bitrate=N/A    frame= 3272 fps=9.2 q=24.8 size=N/A time=00:01:49.17 bitrate=N/A    frame= 3277 fps=9.2 q=24.8 size=N/A time=00:01:49.34 bitrate=N/A    frame= 3282 fps=9.2 q=24.8 size=N/A time=00:01:49.50 bitrate=N/A    frame= 3288 fps=9.2 q=24.8 size=N/A time=00:01:49.70 bitrate=N/A    frame= 3293 fps=9.2 q=24.8 size=N/A time=00:01:49.87 bitrate=N/A    frame= 3298 fps=9.2 q=24.8 size=N/A time=00:01:50.04 bitrate=N/A    frame= 3302 fps=9.2 q=24.8 size=N/A time=00:01:50.17 bitrate=N/A    frame= 3308 fps=9.2 q=24.8 size=N/A time=00:01:50.37 bitrate=N/A    frame= 3313 fps=9.2 q=24.8 size=N/A time=00:01:50.54 bitrate=N/A    frame= 3318 fps=9.2 q=24.8 size=N/A time=00:01:50.71 bitrate=N/A    frame= 3323 fps=9.2 q=24.8 size=N/A time=00:01:50.87 bitrate=N/A    frame= 3329 fps=9.2 q=24.8 size=N/A time=00:01:51.07 bitrate=N/A    frame= 3330 fps=9.2 q=24.8 Lsize=N/A time=00:01:51.11 bitrate=N/A    
video:2004942kB audio:0kB subtitle:0kB other streams:0kB global headers:0kB muxing overhead: unknown
+ turkic load DJI_0055_friss_turas_regi_turas_Homokmegy_2018.03.31._diffuz_kalaszos_T1 /home/horvathandras/vatic/vatic/videos/DJI_0055_friss_turas_regi_turas_Homokmegy_2018.03.31._diffuz_kalaszos_T1 $'Pozit\303\255vROI' $'Negat\303\255vROI' $'T\303\272r\303\241s' '~Friss' '~Régebbi' $'R\303\241g\303\241s' '~Friss' '~Régebbi' $'T\303\266r\303\251s' '~Friss' '~Régebbi' $'Tapos\303\241s' '~Friss' '~Régebbi' $'Eg\303\251szs\303\251gesN\303\266v\303\251ny' $'Egy\303\251b1' $'Egy\303\251b2' $'Egy\303\251b3' $'Egy\303\251b4' $'Egy\303\251b5' --offline --title '$filenameNoDot Video' --length 1000 --description 'vatic annotation'
+ turkic publish --offline
+ mkdir /home/horvathandras/vatic/vatic/public/videothumbnails/DJI_0055_friss_turas_regi_turas_Homokmegy_2018.03.31._diffuz_kalaszos_T1
+ cp /home/horvathandras/vatic/vatic/videos/DJI_0055_friss_turas_regi_turas_Homokmegy_2018.03.31._diffuz_kalaszos_T1/0/0/31.jpg /home/horvathandras/vatic/vatic/public/videothumbnails/DJI_0055_friss_turas_regi_turas_Homokmegy_2018.03.31._diffuz_kalaszos_T1/thumb.jpg
